<?xml version="1.0" encoding="UTF-8"?>
<svg xmlns="http://www.w3.org/2000/svg" version="1.1" viewBox="57 225 1252 318">
  <defs>
    <style>
      .cls-1 {
        fill: #252020;
      }

      .cls-2 {
        fill: #3460fb;
      }
    </style>
  </defs>
  <g>
    <g id="_レイヤー_1" data-name="レイヤー_1">
      <g>
        <g>
          <path class="cls-1" d="M631.22,487.22c0,14.45.66,34.82,2.96,43.04h-51.91c1.31-7.89,2.3-28.58,2.3-43.04v-107.75c-33.84,17.08-74.9,34.17-113.01,44.68l-23.65-40.08c57.49-12.48,112.68-36.79,149.48-59.46,33.18-20.7,67.35-49.94,85.74-74.25l35.15,31.87c-24.97,24.97-54.53,49.61-87.06,70.63v134.37Z"/>
          <path class="cls-1" d="M958.38,311.03c-13.94,35.18-35.52,81.38-62.41,112.29-28.22,32.43-74.69,69.76-125.82,88.73l-37.84-35.8c51.79-16.52,96.6-46.5,126.15-79.55,31.87-35.49,53.78-88.42,62.74-132.17l51.79,12.24c-5.98,11.01-10.62,24.48-14.61,34.27Z"/>
          <path class="cls-1" d="M1308.71,308.04c-4.43,5-8.54,9.06-10.76,13.13-22.79,36.57-63.3,86.58-107.92,122.21,18.04,17.81,36.71,38.13,49.06,52.82l-37.03,29.07c-13.29-17.5-39.88-46.57-60.45-67.51-18.36-18.44-50.64-46.57-69.63-60.01l33.55-26.57c12.66,9.38,33.55,26.25,53.49,43.44,35.76-28.13,65.51-64.39,80.39-90.02h-167.42c-12.66,0-29.75,1.56-36.4,2.19v-43.76c8.23,1.25,25.63,2.81,36.4,2.81h175.65c12.03,0,22.79-1.25,29.43-3.44l31.65,25.63Z"/>
        </g>
        <g>
          <path class="cls-2" d="M195.65,225.37h-104.55c1.42,0,1.42,317.25,0,317.25h104.55c-1.42,0-1.42-317.25,0-317.25Z"/>
          <path class="cls-2" d="M340.73,225.37h-104.55c1.42,0,1.42,317.25,0,317.25h104.55c-1.42,0-1.42-317.25,0-317.25Z"/>
          <path class="cls-2" d="M57.29,404.27v104.55c0-1.42,317.25-1.42,317.25,0v-104.55c0,1.42-317.25,1.42-317.25,0Z"/>
          <path class="cls-2" d="M57.29,259.18v104.55c0-1.42,317.25-1.42,317.25,0v-104.55c0,1.42-317.25,1.42-317.25,0Z"/>
        </g>
      </g>
    </g>
  </g>
</svg>
