<?xml version="1.0" encoding="UTF-8"?>
<svg xmlns="http://www.w3.org/2000/svg" version="1.1" viewBox="0 0 1366 768">
  <defs>
    <style>
      .cls-1 {
        fill: #252020;
      }

      .cls-2 {
        fill: #f2f2f2;
      }

      .cls-3 {
        fill: #3460fb;
      }
    </style>
  </defs>
  <!-- Generator: Adobe Illustrator 28.6.0, SVG Export Plug-In . SVG Version: 1.2.0 Build 709)  -->
  <g>
    <g id="_レイヤー_1" data-name="レイヤー_1">
      <rect class="cls-2" y="0" width="1366" height="768"/>
      <g>
        <g>
          <path class="cls-1" d="M643.35,434.75c0,13.76.63,33.16,2.82,40.98h-49.43c1.25-7.51,2.19-27.22,2.19-40.98v-102.61c-32.22,16.27-71.33,32.53-107.62,42.55l-22.52-38.17c54.75-11.89,107.3-35.04,142.34-56.62,31.6-19.71,64.13-47.55,81.65-70.7l33.47,30.35c-23.78,23.78-51.93,47.24-82.9,67.26v127.95Z"/>
          <path class="cls-1" d="M954.88,266.97c-13.28,33.5-33.82,77.5-59.43,106.92-26.87,30.88-71.13,66.43-119.81,84.49l-36.04-34.09c49.31-15.73,91.99-44.28,120.13-75.75,30.35-33.8,51.21-84.2,59.75-125.86l49.32,11.65c-5.69,10.49-10.12,23.31-13.91,32.63Z"/>
          <path class="cls-1" d="M1288.49,264.13c-4.22,4.76-8.14,8.63-10.25,12.5-21.7,34.82-60.28,82.44-102.77,116.37,17.18,16.96,34.96,36.31,46.71,50.3l-35.26,27.68c-12.66-16.67-37.97-44.35-57.56-64.29-17.48-17.56-48.22-44.35-66.3-57.14l31.95-25.3c12.05,8.93,31.95,25,50.93,41.37,34.05-26.79,62.38-61.31,76.55-85.72h-159.43c-12.06,0-28.33,1.49-34.66,2.08v-41.67c7.84,1.19,24.41,2.68,34.66,2.68h167.26c11.45,0,21.7-1.19,28.03-3.27l30.14,24.41Z"/>
        </g>
        <g>
          <path class="cls-3" d="M209.26,179.7h-99.56c1.35,0,1.35,302.1,0,302.1h99.56c-1.35,0-1.35-302.1,0-302.1Z"/>
          <path class="cls-3" d="M347.42,179.7h-99.56c1.35,0,1.35,302.1,0,302.1h99.56c-1.35,0-1.35-302.1,0-302.1Z"/>
          <path class="cls-3" d="M77.51,350.05v99.56c0-1.35,302.1-1.35,302.1,0v-99.56c0,1.35-302.1,1.35-302.1,0Z"/>
          <path class="cls-3" d="M77.51,211.89v99.56c0-1.35,302.1-1.35,302.1,0v-99.56c0,1.35-302.1,1.35-302.1,0Z"/>
        </g>
        <g>
          <path d="M157.35,533.54h8.02v50.86h-8.02v-50.86Z"/>
          <path d="M176.03,546.4h6.5l.62,5.25h.21c3.52-3.39,7.39-6.22,12.58-6.22,8.08,0,11.68,5.39,11.68,15.06v23.91h-7.95v-22.94c0-6.56-1.94-9.19-6.43-9.19-3.52,0-5.94,1.8-9.33,5.18v26.95h-7.88v-38.01Z"/>
          <path d="M235.51,535.68c-1.38-.62-2.83-.97-4.15-.97-3.39,0-5.04,2.21-5.04,6.84v4.84h7.67v6.36h-7.67v31.65h-7.95v-31.65h-5.18v-5.94l5.18-.41v-4.77c0-7.81,3.52-13.2,12.02-13.2,2.56,0,4.98.55,6.7,1.31l-1.59,5.94Z"/>
          <path d="M236.61,565.47c0-12.72,8.5-20.04,17.9-20.04s17.9,7.32,17.9,20.04-8.5,19.83-17.9,19.83-17.9-7.26-17.9-19.83ZM264.25,565.47c0-8.08-3.73-13.47-9.74-13.47s-9.67,5.39-9.67,13.47,3.73,13.34,9.67,13.34,9.74-5.32,9.74-13.34Z"/>
          <path d="M280.23,546.4h6.5l.62,6.84h.21c2.7-4.91,6.7-7.81,10.78-7.81,1.87,0,3.11.28,4.28.83l-1.45,6.91c-1.31-.42-2.28-.62-3.8-.62-3.11,0-6.84,2.14-9.26,8.15v23.7h-7.88v-38.01Z"/>
          <path d="M307.72,546.4h6.5l.62,5.32h.21c3.25-3.45,7.05-6.29,11.75-6.29,5.67,0,8.85,2.63,10.5,6.98,3.73-4.01,7.6-6.98,12.37-6.98,7.95,0,11.68,5.39,11.68,15.06v23.91h-7.95v-22.94c0-6.56-2.07-9.19-6.36-9.19-2.63,0-5.39,1.73-8.57,5.18v26.95h-7.95v-22.94c0-6.56-2-9.19-6.36-9.19-2.56,0-5.39,1.73-8.57,5.18v26.95h-7.88v-38.01Z"/>
          <path d="M368.95,574.31c0-8.15,6.91-12.37,22.73-14.1-.07-4.42-1.66-8.29-7.26-8.29-4.01,0-7.74,1.8-10.99,3.87l-2.97-5.39c3.94-2.49,9.26-4.97,15.34-4.97,9.47,0,13.82,6.01,13.82,16.1v22.87h-6.5l-.69-4.35h-.21c-3.45,2.97-7.53,5.25-12.09,5.25-6.56,0-11.19-4.28-11.19-10.99ZM391.68,574.59v-9.33c-11.26,1.38-15.06,4.22-15.06,8.5,0,3.73,2.56,5.25,5.94,5.25s6.01-1.59,9.12-4.42Z"/>
          <path d="M410.13,571.96v-19.21h-5.53v-5.94l5.87-.41.9-10.5h6.7v10.5h9.88v6.36h-9.88v19.28c0,4.56,1.59,6.91,5.53,6.91,1.31,0,2.97-.41,4.08-.9l1.45,5.87c-2.14.69-4.7,1.38-7.46,1.38-8.57,0-11.54-5.32-11.54-13.34Z"/>
          <path d="M433.7,534.58c0-2.83,2.14-4.7,5.04-4.7s5.11,1.86,5.11,4.7-2.21,4.7-5.11,4.7-5.04-1.94-5.04-4.7ZM434.8,546.4h7.88v38.01h-7.88v-38.01Z"/>
          <path d="M450.27,565.47c0-12.72,8.5-20.04,17.9-20.04s17.9,7.32,17.9,20.04-8.5,19.83-17.9,19.83-17.9-7.26-17.9-19.83ZM477.92,565.47c0-8.08-3.73-13.47-9.74-13.47s-9.67,5.39-9.67,13.47,3.73,13.34,9.67,13.34,9.74-5.32,9.74-13.34Z"/>
          <path d="M493.9,546.4h6.5l.62,5.25h.21c3.52-3.39,7.39-6.22,12.58-6.22,8.09,0,11.68,5.39,11.68,15.06v23.91h-7.95v-22.94c0-6.56-1.94-9.19-6.43-9.19-3.52,0-5.94,1.8-9.33,5.18v26.95h-7.88v-38.01Z"/>
          <path d="M553.26,533.54h8.22l16.86,29.85,5.32,10.78h.35c-.41-5.25-1.04-11.4-1.04-16.93v-23.7h7.6v50.86h-8.22l-16.86-29.99-5.32-10.64h-.35c.41,5.25,1.04,11.13,1.04,16.65v23.98h-7.6v-50.86Z"/>
          <path d="M599.2,565.47c0-12.72,8.5-20.04,17.9-20.04s17.9,7.32,17.9,20.04-8.5,19.83-17.9,19.83-17.9-7.26-17.9-19.83ZM626.85,565.47c0-8.08-3.73-13.47-9.74-13.47s-9.67,5.39-9.67,13.47,3.73,13.34,9.67,13.34,9.74-5.32,9.74-13.34Z"/>
          <path d="M642.83,546.4h6.5l.62,6.84h.21c2.7-4.91,6.7-7.81,10.78-7.81,1.87,0,3.11.28,4.28.83l-1.45,6.91c-1.31-.42-2.28-.62-3.8-.62-3.11,0-6.84,2.14-9.26,8.15v23.7h-7.88v-38.01Z"/>
          <path d="M670.32,546.4h6.5l.62,5.32h.21c3.25-3.45,7.05-6.29,11.75-6.29,5.67,0,8.85,2.63,10.5,6.98,3.73-4.01,7.6-6.98,12.37-6.98,7.95,0,11.68,5.39,11.68,15.06v23.91h-7.95v-22.94c0-6.56-2.07-9.19-6.36-9.19-2.63,0-5.39,1.73-8.57,5.18v26.95h-7.95v-22.94c0-6.56-2-9.19-6.36-9.19-2.56,0-5.39,1.73-8.57,5.18v26.95h-7.88v-38.01Z"/>
          <path d="M731.54,574.31c0-8.15,6.91-12.37,22.73-14.1-.07-4.42-1.66-8.29-7.26-8.29-4.01,0-7.74,1.8-10.99,3.87l-2.97-5.39c3.94-2.49,9.26-4.97,15.34-4.97,9.47,0,13.82,6.01,13.82,16.1v22.87h-6.5l-.69-4.35h-.21c-3.45,2.97-7.53,5.25-12.09,5.25-6.56,0-11.2-4.28-11.2-10.99ZM754.28,574.59v-9.33c-11.26,1.38-15.06,4.22-15.06,8.5,0,3.73,2.56,5.25,5.94,5.25s6.01-1.59,9.12-4.42Z"/>
          <path d="M771.8,575.49v-46.16h7.88v46.57c0,2.14.97,2.9,1.93,2.9.35,0,.62,0,1.31-.14l1.04,6.01c-.97.35-2.35.62-4.28.62-5.74,0-7.88-3.66-7.88-9.81Z"/>
          <path d="M789.5,534.58c0-2.83,2.14-4.7,5.04-4.7s5.11,1.86,5.11,4.7-2.21,4.7-5.11,4.7-5.04-1.94-5.04-4.7ZM790.61,546.4h7.88v38.01h-7.88v-38.01Z"/>
          <path d="M804.75,580.12l18.73-27.36h-16.65v-6.36h26.67v4.21l-18.73,27.43h19.35v6.36h-29.37v-4.28Z"/>
          <path d="M839.08,574.31c0-8.15,6.91-12.37,22.73-14.1-.07-4.42-1.66-8.29-7.26-8.29-4.01,0-7.74,1.8-10.99,3.87l-2.97-5.39c3.94-2.49,9.26-4.97,15.34-4.97,9.47,0,13.82,6.01,13.82,16.1v22.87h-6.5l-.69-4.35h-.21c-3.46,2.97-7.53,5.25-12.09,5.25-6.56,0-11.2-4.28-11.2-10.99ZM861.82,574.59v-9.33c-11.26,1.38-15.06,4.22-15.06,8.5,0,3.73,2.56,5.25,5.94,5.25s6.01-1.59,9.12-4.42Z"/>
          <path d="M880.27,571.96v-19.21h-5.53v-5.94l5.87-.41.9-10.5h6.7v10.5h9.88v6.36h-9.88v19.28c0,4.56,1.59,6.91,5.53,6.91,1.31,0,2.97-.41,4.08-.9l1.45,5.87c-2.14.69-4.7,1.38-7.46,1.38-8.57,0-11.54-5.32-11.54-13.34Z"/>
          <path d="M903.83,534.58c0-2.83,2.14-4.7,5.04-4.7s5.11,1.86,5.11,4.7-2.21,4.7-5.11,4.7-5.04-1.94-5.04-4.7ZM904.94,546.4h7.88v38.01h-7.88v-38.01Z"/>
          <path d="M920.41,565.47c0-12.72,8.5-20.04,17.9-20.04s17.9,7.32,17.9,20.04-8.5,19.83-17.9,19.83-17.9-7.26-17.9-19.83ZM948.05,565.47c0-8.08-3.73-13.47-9.74-13.47s-9.67,5.39-9.67,13.47,3.73,13.34,9.67,13.34,9.74-5.32,9.74-13.34Z"/>
          <path d="M964.03,546.4h6.5l.62,5.25h.21c3.52-3.39,7.39-6.22,12.58-6.22,8.09,0,11.68,5.39,11.68,15.06v23.91h-7.95v-22.94c0-6.56-1.94-9.19-6.43-9.19-3.52,0-5.94,1.8-9.33,5.18v26.95h-7.88v-38.01Z"/>
          <path d="M1023.39,533.54h9.19l9.33,25.71c1.17,3.39,2.21,6.84,3.39,10.3h.35c1.17-3.46,2.14-6.91,3.32-10.3l9.19-25.71h9.26v50.86h-7.46v-25.15c0-4.56.62-11.13,1.04-15.75h-.28l-4.08,11.75-8.85,24.25h-4.97l-8.91-24.25-4.01-11.75h-.28c.35,4.63.97,11.19.97,15.75v25.15h-7.19v-50.86Z"/>
          <path d="M1076.01,574.31c0-8.15,6.91-12.37,22.73-14.1-.07-4.42-1.66-8.29-7.26-8.29-4.01,0-7.74,1.8-10.99,3.87l-2.97-5.39c3.94-2.49,9.26-4.97,15.34-4.97,9.47,0,13.82,6.01,13.82,16.1v22.87h-6.5l-.69-4.35h-.21c-3.46,2.97-7.53,5.25-12.09,5.25-6.56,0-11.2-4.28-11.2-10.99ZM1098.75,574.59v-9.33c-11.26,1.38-15.06,4.22-15.06,8.5,0,3.73,2.56,5.25,5.94,5.25s6.01-1.59,9.12-4.42Z"/>
          <path d="M1117.2,571.96v-19.21h-5.53v-5.94l5.87-.41.9-10.5h6.7v10.5h9.88v6.36h-9.88v19.28c0,4.56,1.59,6.91,5.53,6.91,1.31,0,2.97-.41,4.08-.9l1.45,5.87c-2.14.69-4.7,1.38-7.46,1.38-8.57,0-11.54-5.32-11.54-13.34Z"/>
          <path d="M1141.87,546.4h6.5l.62,6.84h.21c2.69-4.91,6.7-7.81,10.78-7.81,1.87,0,3.11.28,4.28.83l-1.45,6.91c-1.31-.42-2.28-.62-3.8-.62-3.11,0-6.84,2.14-9.26,8.15v23.7h-7.88v-38.01Z"/>
          <path d="M1168.26,534.58c0-2.83,2.14-4.7,5.04-4.7s5.11,1.86,5.11,4.7-2.21,4.7-5.11,4.7-5.04-1.94-5.04-4.7ZM1169.36,546.4h7.88v38.01h-7.88v-38.01Z"/>
          <path d="M1195.11,564.57l-11.4-18.17h8.57l4.56,7.67c1.11,2.07,2.35,4.21,3.59,6.36h.28c1.04-2.14,2.14-4.28,3.18-6.36l4.01-7.67h8.29l-11.4,19.07,12.23,18.93h-8.64l-4.97-8.02c-1.24-2.28-2.56-4.63-3.94-6.77h-.35c-1.17,2.14-2.35,4.42-3.52,6.77l-4.42,8.02h-8.36l12.3-19.83Z"/>
        </g>
      </g>
    </g>
  </g>
</svg>