<?xml version="1.0" encoding="UTF-8"?>
<svg xmlns="http://www.w3.org/2000/svg" version="1.1" viewBox="0 0 600 600">
  <defs>
    <style>
      .cls-1 {
        fill: #3460fb;
      }
    </style>
  </defs>
  <!-- Generator: Adobe Illustrator 28.6.0, SVG Export Plug-In . SVG Version: 1.2.0 Build 709)  -->
  <g>
    <g id="_レイヤー_1" data-name="レイヤー_1">
      <g>
        <path class="cls-1" d="M324.23,147.56l-96.85-28.35c1.32.39-84.7,294.28-86.01,293.89l96.85,28.35c-1.32-.39,84.7-294.28,86.01-293.89Z"/>
        <path class="cls-1" d="M458.63,186.89l-96.85-28.35c1.32.39-84.7,294.28-86.01,293.89l96.85,28.35c-1.32-.39,84.7-294.28,86.01-293.89Z"/>
        <path class="cls-1" d="M147.56,275.77l-28.35,96.85c.39-1.32,294.28,84.7,293.89,86.01l28.35-96.85c-.39,1.32-294.28-84.7-293.89-86.01Z"/>
        <path class="cls-1" d="M186.89,141.37l-28.35,96.85c.39-1.32,294.28,84.7,293.89,86.01l28.35-96.85c-.39,1.32-294.28-84.7-293.89-86.01Z"/>
      </g>
    </g>
  </g>
</svg>